<?xml version="1.0" standalone="no"?>
<!DOCTYPE svg PUBLIC "-//W3C//DTD SVG 20010904//EN"
 "http://www.w3.org/TR/2001/REC-SVG-20010904/DTD/svg10.dtd">
<svg version="1.0" xmlns="http://www.w3.org/2000/svg"
 width="260.000000pt" height="260.000000pt" viewBox="0 0 260.000000 260.000000"
 preserveAspectRatio="xMidYMid meet">
<metadata>
Created by potrace 1.11, written by Peter Selinger 2001-2013
</metadata>
<g transform="translate(0.000000,260.000000) scale(0.100000,-0.100000)"
fill="#000000" stroke="none">
<path d="M2116 2578 c-12 -17 -16 -49 -16 -138 l0 -115 -497 4 c-409 2 -770
-5 -1092 -23 -24 -1 -26 3 -43 103 -9 57 -19 110 -22 118 -15 37 -47 1 -181
-201 -77 -115 -137 -181 -207 -226 l-57 -37 22 -21 c71 -66 209 -46 334 48 29
22 54 40 55 40 2 0 0 -42 -3 -92 -4 -51 -12 -203 -18 -338 -17 -373 -20 -422
-24 -426 -2 -3 -20 13 -40 35 -38 42 -94 151 -125 244 -10 31 -22 60 -25 63
-10 11 -38 -56 -44 -107 -3 -27 -9 -51 -12 -54 -4 -2 -21 9 -38 26 -18 16 -34
29 -37 29 -12 0 -5 -99 10 -151 46 -155 159 -305 265 -348 l56 -24 5 -259 c4
-203 8 -263 19 -273 17 -17 143 -45 207 -46 26 0 55 -4 65 -8 10 -4 34 -44 55
-92 45 -104 92 -186 145 -257 47 -62 56 -57 64 39 3 32 8 59 10 59 3 0 17 -8
31 -19 47 -32 112 -62 112 -50 0 6 -25 75 -55 154 -30 78 -55 144 -55 147 0 2
135 5 300 5 199 1 300 -2 300 -9 0 -5 -20 -69 -45 -140 -25 -72 -45 -137 -45
-145 0 -13 8 -14 41 -9 23 4 54 13 69 21 l28 15 7 -50 c4 -28 10 -52 15 -55
11 -7 121 111 166 179 21 33 51 96 65 140 l26 80 143 18 c78 9 145 20 149 23
3 4 7 150 9 325 l3 318 36 7 c74 14 170 100 220 198 44 88 79 268 56 291 -4 3
-24 -10 -44 -30 l-38 -37 -11 27 c-5 15 -10 30 -10 34 0 4 -10 23 -22 42 l-21
35 -14 -80 c-16 -98 -62 -194 -110 -234 -20 -17 -38 -29 -40 -28 -2 3 -33 720
-33 780 l0 28 28 -19 c47 -33 100 -45 184 -40 67 4 85 9 120 34 56 39 77 71
84 125 l6 46 -53 6 c-117 14 -264 115 -370 255 -47 63 -47 63 -63 40z m118
-186 c51 -53 147 -116 204 -133 44 -13 60 -36 17 -25 -17 4 -24 3 -23 -6 5
-21 -171 -17 -202 5 -34 24 -54 22 -47 -4 3 -13 2 -18 -3 -13 -9 9 -18 80 -25
203 l-4 73 21 -29 c12 -15 40 -47 62 -71z m-1809 -17 c5 -55 3 -79 -7 -93 -39
-54 -74 -92 -85 -92 -7 0 -13 -6 -13 -13 0 -14 -97 -67 -122 -67 -8 0 -24 -9
-36 -20 -33 -31 -39 -24 -7 10 15 16 32 27 37 24 5 -3 7 -2 6 3 -4 15 74 113
84 106 7 -3 8 -1 4 5 -3 6 9 36 29 66 19 30 35 59 35 63 0 4 11 21 25 37 14
16 25 33 25 38 0 4 4 8 9 8 5 0 12 -34 16 -75z m5 -125 c0 -5 -5 -10 -11 -10
-5 0 -7 5 -4 10 3 6 8 10 11 10 2 0 4 -4 4 -10z m1674 -32 c17 -138 28 -568
29 -1093 l2 -599 -44 -8 c-25 -4 -122 -15 -215 -25 -244 -25 -1172 -26 -1319
-1 -54 9 -101 19 -105 23 -9 9 -9 930 1 1185 7 199 15 303 38 463 l11 77 37 1
c242 9 609 15 1038 17 l522 2 5 -42z m-1725 -41 c-2 -1 -13 -9 -24 -17 -19
-14 -19 -14 -6 3 7 9 18 17 24 17 6 0 8 -1 6 -3z m2044 -24 c-7 -2 -19 -2 -25
0 -7 3 -2 5 12 5 14 0 19 -2 13 -5z m-18 -624 c-5 -16 -4 -19 6 -14 9 6 11 3
6 -9 -11 -28 23 -33 45 -6 28 34 32 19 13 -47 l-17 -58 -13 30 c-7 17 -10 34
-7 39 3 5 0 6 -6 2 -6 -3 -18 4 -26 16 -18 26 -21 68 -5 68 6 0 8 -9 4 -21z
m-2233 -81 c-9 -15 -18 -26 -19 -24 -2 2 -1 28 3 57 l7 54 13 -30 c10 -25 9
-34 -4 -57z m-54 -65 c-25 -27 -27 -26 -38 20 l-8 36 34 -17 34 -16 -22 -23z
m2275 -19 c32 -30 35 -38 26 -56 -16 -30 -104 -118 -118 -118 -7 0 -10 4 -7 8
3 5 -1 20 -9 35 -7 14 -11 28 -9 30 3 2 -2 9 -10 16 -11 9 -17 8 -29 -4 -20
-19 -28 -19 -21 0 4 8 12 15 19 15 7 0 35 25 62 54 26 30 50 55 53 55 3 1 22
-15 43 -35z m-2106 -76 c28 -39 31 -49 23 -79 -15 -58 -35 -109 -41 -109 -12
0 -100 94 -114 120 -16 31 -2 75 39 126 l28 36 17 -25 c9 -14 30 -45 48 -69z
m1520 -894 c-3 -3 -12 -4 -19 -1 -8 3 -5 6 6 6 11 1 17 -2 13 -5z m33 -4 c0
-5 -2 -10 -4 -10 -3 0 -8 5 -11 10 -3 6 -1 10 4 10 6 0 11 -4 11 -10z m-942
-7 c-16 -2 -40 -2 -55 0 -16 2 -3 4 27 4 30 0 43 -2 28 -4z m755 0 c-7 -2 -19
-2 -25 0 -7 3 -2 5 12 5 14 0 19 -2 13 -5z m-698 -63 c8 -14 14 -28 15 -31 0
-3 -34 -9 -75 -13 -42 -4 -81 -9 -88 -12 -10 -4 -47 52 -47 71 0 6 51 11 118
10 57 0 65 -3 77 -25z m865 9 c0 -3 -5 -20 -11 -38 -7 -21 -16 -30 -25 -27 -8
3 -54 8 -103 12 -69 5 -88 10 -85 20 2 8 6 21 9 29 4 12 23 14 110 12 57 -1
105 -5 105 -8z m-905 -147 c-2 -9 -7 -34 -10 -55 l-6 -37 -35 46 c-38 50 -36
60 11 66 38 5 44 2 40 -20z m65 16 c0 -10 3 -9 9 1 7 10 12 8 25 -10 9 -13 16
-27 16 -31 0 -9 -46 18 -68 39 -11 11 -11 13 2 13 9 0 16 -6 16 -12z m690 -15
c19 -4 41 -5 48 -4 18 3 15 -6 -14 -45 -30 -38 -44 -36 -44 7 0 32 -9 35 -48
15 -15 -7 -37 -16 -49 -20 -20 -7 -21 -5 -11 28 12 37 12 37 118 19z"/>
<path d="M316 2257 c3 -10 9 -15 12 -12 3 3 0 11 -7 18 -10 9 -11 8 -5 -6z"/>
<path d="M1134 2130 c-59 -30 -122 -82 -151 -126 -8 -13 -20 -21 -26 -17 -5 3
-7 1 -4 -4 4 -6 0 -25 -9 -42 -22 -45 -12 -48 32 -9 22 18 31 24 22 13 -20
-24 -70 -131 -92 -198 -9 -26 -16 -77 -16 -112 0 -56 3 -66 23 -82 l24 -17
-26 -56 c-24 -51 -26 -65 -26 -200 0 -143 1 -146 32 -213 63 -134 165 -266
205 -267 9 0 18 -4 20 -9 5 -16 182 -43 203 -32 6 3 19 6 30 7 80 4 207 93
251 175 74 139 83 365 20 521 -23 55 -23 58 -5 74 32 29 52 98 46 162 -8 89
-56 217 -99 266 -10 11 -18 23 -18 26 0 9 40 28 64 32 80 13 -71 89 -206 104
-48 5 -59 4 -64 -10 -3 -9 0 -24 7 -33 10 -12 10 -15 2 -9 -7 4 -13 2 -13 -3
0 -6 4 -11 10 -11 5 0 -1 -16 -15 -36 -13 -19 -27 -56 -31 -81 -7 -45 0 -177
11 -204 4 -10 -4 -14 -30 -14 -30 0 -34 3 -28 20 4 11 6 53 6 93 -1 60 -6 84
-29 131 l-29 58 22 23 c12 13 19 28 16 33 -3 6 6 20 22 33 37 29 25 44 -39 44
-39 0 -69 -8 -112 -30z m56 -80 c8 -5 11 -10 5 -10 -5 0 -17 5 -25 10 -8 5
-10 10 -5 10 6 0 17 -5 25 -10z m313 -60 c16 -17 22 -27 13 -24 -15 6 -15 4
-2 -22 9 -16 22 -44 30 -63 15 -33 15 -33 -7 -26 -12 4 -56 14 -97 23 -41 9
-76 16 -77 17 -7 3 21 93 34 107 25 28 74 23 106 -12z m-307 -22 c5 -7 3 -8
-6 -3 -9 5 -10 2 -5 -14 5 -17 3 -20 -12 -14 -14 6 -13 2 5 -17 27 -30 28 -35
0 -37 -40 -3 -155 -43 -168 -58 -26 -31 -29 -13 -6 33 24 47 63 89 101 110 26
15 82 15 91 0z m44 -160 c0 -76 -7 -86 -69 -103 -64 -19 -110 -45 -164 -94
-31 -28 -42 -33 -55 -24 -20 12 -28 87 -13 126 11 28 31 37 31 14 0 -8 9 -22
20 -32 39 -35 120 11 120 70 0 17 -5 36 -12 43 -13 13 -7 16 57 31 79 18 85
16 85 -31z m230 16 c0 -24 -18 -24 -33 0 -15 22 -15 23 9 18 13 -2 24 -10 24
-18z m90 -24 c71 -45 82 -62 82 -118 0 -52 -24 -112 -45 -112 -7 0 -32 20 -56
44 -24 24 -68 56 -99 72 -61 30 -72 40 -72 65 0 12 7 15 25 11 42 -7 72 6 85
38 7 16 17 30 23 30 6 0 31 -14 57 -30z m-479 -32 c-11 -10 -14 -10 -18 0 -3
6 -12 12 -21 13 -10 1 -7 4 8 8 31 10 49 -4 31 -21z m327 -131 c70 -37 108
-73 146 -136 106 -174 78 -402 -68 -546 -75 -74 -179 -103 -286 -80 -90 19
-181 105 -227 215 -23 57 -27 79 -27 175 -1 172 40 270 144 339 64 43 106 55
195 56 65 0 88 -4 123 -23z m-323 -785 c-3 -3 -11 0 -18 7 -9 10 -8 11 6 5 10
-3 15 -9 12 -12z m355 -32 c-8 -5 -19 -10 -25 -10 -5 0 -3 5 5 10 8 5 20 10
25 10 6 0 3 -5 -5 -10z m-66 -25 c-4 -8 -11 -12 -16 -9 -6 4 -5 10 3 15 19 12
19 11 13 -6z m-37 -1 c-3 -3 -12 -4 -19 -1 -8 3 -5 6 6 6 11 1 17 -2 13 -5z
m-50 -20 c-3 -3 -12 -4 -19 -1 -8 3 -5 6 6 6 11 1 17 -2 13 -5z"/>
<path d="M1450 1929 c0 -5 5 -7 10 -4 6 3 10 8 10 11 0 2 -4 4 -10 4 -5 0 -10
-5 -10 -11z"/>
<path d="M1350 1331 c-74 -74 -6 -190 83 -142 43 23 50 95 15 135 -37 40 -64
42 -98 7z m34 -46 c-4 -8 -8 -15 -10 -15 -2 0 -4 7 -4 15 0 8 4 15 10 15 5 0
7 -7 4 -15z m36 5 c0 -5 -2 -10 -4 -10 -3 0 -8 5 -11 10 -3 6 -1 10 4 10 6 0
11 -4 11 -10z"/>
<path d="M1132 1345 c4 -4 -6 -18 -23 -32 -23 -19 -29 -33 -29 -63 0 -108 137
-126 155 -19 5 29 2 41 -19 66 -14 17 -22 33 -19 37 4 4 0 4 -9 1 -9 -4 -27
-1 -40 6 -13 6 -20 8 -16 4z"/>
<path d="M946 2013 c-6 -14 -5 -15 5 -6 7 7 10 15 7 18 -3 3 -9 -2 -12 -12z"/>
<path d="M854 964 c-12 -45 4 -125 32 -166 34 -48 109 -95 177 -110 77 -16
250 -5 317 21 30 12 62 25 70 31 28 18 -1 23 -57 10 -73 -17 -87 -18 -203 -20
-84 -2 -102 1 -152 25 -96 44 -158 127 -158 211 0 32 -18 31 -26 -2z"/>
<path d="M875 668 c4 -18 12 -38 17 -45 5 -7 5 -13 0 -17 -5 -3 -7 -17 -4 -32
6 -35 64 -64 92 -46 11 7 27 12 35 12 8 0 15 5 15 12 0 7 12 22 27 33 33 27
23 45 -22 45 -45 0 -113 28 -126 51 -5 11 -17 19 -25 19 -12 0 -14 -7 -9 -32z"/>
<path d="M876 183 c-11 -11 -6 -23 9 -23 8 0 15 4 15 9 0 13 -16 22 -24 14z"/>
</g>
</svg>
