<?xml version="1.0" standalone="no"?>
<!DOCTYPE svg PUBLIC "-//W3C//DTD SVG 20010904//EN"
 "http://www.w3.org/TR/2001/REC-SVG-20010904/DTD/svg10.dtd">
<svg version="1.0" xmlns="http://www.w3.org/2000/svg"
 width="260.000000pt" height="260.000000pt" viewBox="0 0 260.000000 260.000000"
 preserveAspectRatio="xMidYMid meet">
<metadata>
Created by potrace 1.11, written by Peter Selinger 2001-2013
</metadata>
<g transform="translate(0.000000,260.000000) scale(0.100000,-0.100000)"
fill="#000000" stroke="none">
<path d="M2112 2575 c-7 -15 -12 -74 -12 -138 l0 -112 -512 4 c-427 2 -743 -4
-1078 -23 -24 -1 -25 3 -44 117 -27 165 -24 166 -178 -62 -101 -150 -159 -215
-229 -261 l-58 -37 22 -21 c30 -27 102 -45 151 -37 56 8 121 39 183 85 29 22
54 40 55 40 2 0 0 -42 -4 -92 -3 -51 -11 -203 -17 -338 -16 -361 -20 -422 -24
-427 -3 -2 -21 15 -42 39 -40 47 -92 150 -123 241 -10 31 -22 60 -25 63 -10
11 -38 -56 -44 -107 -3 -27 -9 -52 -13 -54 -4 -2 -20 9 -35 25 -16 17 -32 30
-37 30 -15 0 -8 -107 11 -163 57 -165 158 -293 264 -337 l57 -24 1 -195 c1
-108 4 -227 8 -266 7 -83 13 -87 136 -105 184 -26 161 -14 203 -110 45 -105
91 -187 145 -258 47 -62 56 -57 64 39 3 32 8 59 10 59 3 0 17 -8 31 -19 45
-31 112 -62 112 -51 0 5 -23 70 -51 142 -28 73 -53 140 -55 148 -4 13 33 15
295 17 166 1 301 -2 301 -6 0 -4 -20 -67 -45 -141 -25 -74 -45 -141 -45 -148
0 -18 66 -10 110 13 l28 15 7 -50 c4 -28 10 -52 15 -55 12 -7 124 115 169 185
23 35 52 98 65 139 23 73 25 76 57 79 73 6 253 33 258 38 3 3 7 149 9 324 l3
318 37 7 c51 9 93 37 147 98 57 62 88 122 115 218 20 73 26 159 13 173 -4 3
-24 -10 -44 -30 l-38 -37 -11 29 c-41 112 -55 124 -63 52 -9 -77 -32 -147 -66
-200 -28 -44 -76 -86 -86 -76 -4 4 -35 687 -35 771 l0 28 28 -19 c59 -41 170
-55 255 -31 75 21 137 99 137 175 0 18 -8 22 -52 27 -117 14 -282 130 -374
262 -20 30 -40 55 -44 55 -4 0 -12 -11 -18 -25z m122 -183 c51 -53 147 -116
204 -133 40 -12 62 -37 23 -26 -11 3 -22 -1 -25 -8 -7 -20 -172 -14 -214 8
-18 10 -37 15 -42 12 -6 -3 -11 2 -11 12 -1 10 -3 27 -4 38 -2 11 -5 59 -8
108 l-5 88 21 -28 c11 -16 39 -47 61 -71z m-1809 -17 c6 -71 5 -78 -18 -108
-70 -90 -157 -157 -204 -157 -11 0 -33 -10 -49 -22 l-29 -22 29 32 c16 17 33
29 38 26 5 -3 7 -2 6 3 -4 15 74 113 84 106 7 -3 8 -1 4 5 -3 6 9 36 29 66 19
30 35 59 35 63 0 4 11 21 25 37 14 16 25 33 25 38 0 4 4 8 9 8 5 0 12 -34 16
-75z m1679 -157 c16 -129 31 -752 31 -1263 l0 -429 -44 -8 c-25 -4 -122 -15
-215 -25 -244 -25 -1172 -26 -1319 -1 -54 9 -101 19 -105 23 -12 11 -7 1119 6
1311 11 165 38 403 47 413 8 7 580 18 1082 19 l512 2 5 -42z m-1725 -41 c-2
-1 -13 -9 -24 -17 -19 -14 -19 -14 -6 3 7 9 18 17 24 17 6 0 8 -1 6 -3z m2044
-24 c-7 -2 -19 -2 -25 0 -7 3 -2 5 12 5 14 0 19 -2 13 -5z m-16 -625 c0 -13 3
-32 7 -43 8 -20 7 -20 -8 -1 -17 21 -22 66 -7 66 5 0 9 -10 8 -22z m-2232 -38
c-3 -6 0 -10 7 -10 9 -1 7 -5 -4 -14 -10 -7 -15 -15 -12 -18 3 -4 0 -9 -7 -14
-9 -5 -10 1 -6 26 4 18 7 42 7 54 1 19 2 19 11 3 5 -9 7 -22 4 -27z m2309 3
c-3 -16 -11 -44 -16 -63 -11 -33 -11 -34 -20 -10 -7 18 -5 26 7 32 8 5 15 14
15 21 0 8 -3 7 -9 -2 -5 -7 -14 -11 -19 -7 -7 4 -3 15 11 30 30 32 39 32 31
-1z m-2367 -109 c-23 -24 -38 -24 -18 0 7 9 8 17 2 20 -5 3 -11 0 -13 -6 -3
-7 -7 -1 -10 14 l-5 26 33 -16 33 -15 -22 -23z m2276 -20 c32 -30 35 -38 26
-56 -16 -30 -104 -118 -118 -118 -7 0 -10 4 -7 8 3 5 -1 20 -9 35 -7 14 -11
28 -9 30 3 2 -2 9 -10 16 -11 9 -17 8 -29 -4 -20 -19 -28 -19 -21 0 4 8 12 15
19 15 7 0 35 25 62 54 26 30 50 55 53 55 3 1 22 -15 43 -35z m-2106 -76 c29
-42 31 -48 22 -89 -11 -51 -31 -99 -40 -99 -12 0 -100 94 -114 120 -16 31 -2
75 39 126 l28 36 17 -25 c9 -14 30 -45 48 -69z m1553 -898 c0 -5 -2 -10 -4
-10 -3 0 -8 5 -11 10 -3 6 -1 10 4 10 6 0 11 -4 11 -10z m-962 -7 c-10 -2 -28
-2 -40 0 -13 2 -5 4 17 4 22 1 32 -1 23 -4z m775 0 c-7 -2 -19 -2 -25 0 -7 3
-2 5 12 5 14 0 19 -2 13 -5z m-698 -64 c8 -15 15 -30 15 -32 0 -2 -34 -7 -75
-11 -42 -4 -81 -9 -88 -12 -10 -4 -47 52 -47 71 0 7 44 12 113 12 64 1 68 -1
82 -28z m865 10 c0 -3 -5 -20 -11 -38 -7 -21 -16 -30 -25 -27 -8 3 -54 8 -103
12 -69 5 -88 10 -85 20 2 8 6 21 9 29 4 13 23 15 110 13 57 -2 105 -6 105 -9z
m-840 -129 c0 -6 11 -15 25 -20 14 -5 25 -14 25 -20 0 -10 -43 13 -68 37 -11
11 -11 13 2 13 9 0 16 -5 16 -10z m-68 -17 c2 -10 0 -35 -5 -55 l-9 -37 -34
45 c-19 25 -32 49 -29 54 4 6 21 10 40 10 24 0 35 -5 37 -17z m662 3 c-3 -8
-1 -17 5 -21 6 -3 11 1 11 11 0 14 6 15 38 9 20 -4 52 -7 70 -8 17 0 32 -3 32
-6 -1 -13 -50 -61 -62 -61 -9 0 -9 3 2 10 10 6 11 10 3 10 -7 0 -13 9 -13 20
0 24 -11 25 -48 6 -15 -7 -37 -16 -49 -20 -20 -7 -21 -5 -11 29 6 19 15 35 19
35 5 0 6 -6 3 -14z"/>
<path d="M1135 2131 c-59 -29 -121 -81 -152 -127 -8 -13 -20 -21 -26 -17 -5 3
-7 1 -4 -4 4 -6 0 -25 -9 -42 -21 -42 -13 -48 24 -16 l30 25 -29 -54 c-49 -91
-79 -189 -79 -260 0 -57 3 -67 23 -83 l24 -17 -23 -51 c-49 -106 -46 -311 5
-422 61 -128 166 -263 206 -263 8 0 15 -4 15 -9 0 -6 21 -13 48 -16 26 -3 54
-10 62 -14 18 -9 78 -7 101 3 10 4 23 6 30 5 55 -9 194 87 235 161 10 19 21
37 24 40 3 3 14 32 25 65 28 88 30 262 4 356 -11 39 -26 84 -34 99 -13 25 -13
29 2 41 32 27 54 96 52 162 -1 34 -6 69 -10 77 -4 8 -17 41 -28 72 -23 66 -38
94 -65 126 -24 27 -14 41 35 51 18 4 34 11 36 17 12 36 -259 116 -289 86 -10
-10 -10 -17 0 -33 8 -12 9 -18 3 -14 -6 3 -11 1 -11 -4 0 -6 4 -11 10 -11 5 0
-1 -16 -15 -36 -13 -19 -27 -56 -31 -81 -7 -45 0 -177 11 -204 4 -10 -4 -14
-30 -14 -30 0 -34 3 -28 20 4 11 6 53 6 93 -1 60 -6 84 -30 133 l-29 59 22 21
c13 12 21 26 17 32 -3 6 6 20 22 33 37 29 25 44 -38 44 -37 0 -69 -8 -112 -29z
m55 -81 c8 -5 11 -10 5 -10 -5 0 -17 5 -25 10 -8 5 -10 10 -5 10 6 0 17 -5 25
-10z m306 -57 c6 -13 13 -20 16 -17 3 3 9 0 14 -7 5 -8 3 -10 -6 -4 -10 6 -12
4 -6 -11 5 -10 13 -32 18 -49 6 -16 15 -36 21 -42 13 -17 -2 -17 -44 1 -19 8
-60 17 -92 21 -46 6 -57 11 -53 24 2 9 7 29 11 46 10 44 34 65 75 62 24 -1 38
-8 46 -24z m-319 -33 c7 -10 10 -26 7 -34 -3 -8 -1 -17 5 -21 12 -7 15 -26 4
-23 -31 8 -174 -39 -187 -61 -4 -6 -11 -11 -17 -11 -15 0 36 92 68 121 56 52
100 63 120 29z m63 -152 c0 -76 -7 -86 -69 -103 -64 -19 -110 -45 -164 -94
-31 -28 -42 -33 -55 -24 -20 12 -28 87 -13 126 11 27 31 37 31 15 0 -20 32
-48 56 -48 37 0 84 47 84 84 0 18 -5 37 -12 44 -13 13 -7 16 57 31 79 18 85
16 85 -31z m228 15 c-4 -22 -22 -20 -26 1 -2 10 3 16 13 16 10 0 15 -7 13 -17z
m97 -28 c29 -20 59 -42 65 -50 28 -34 2 -175 -32 -175 -6 0 -35 23 -65 51 -29
27 -74 60 -100 71 -51 22 -63 33 -63 59 0 12 7 15 25 11 42 -7 72 6 85 38 7
16 17 30 22 30 5 0 34 -16 63 -35z m-480 -25 c-5 -8 -11 -8 -17 -2 -6 6 -7 16
-3 22 5 8 11 8 17 2 6 -6 7 -16 3 -22z m323 -133 c70 -37 108 -73 146 -136
106 -174 78 -402 -68 -546 -68 -67 -130 -89 -235 -83 -61 4 -88 10 -123 31
-62 36 -122 109 -155 187 -23 57 -27 79 -27 175 -1 172 40 270 144 339 64 43
106 55 195 56 65 0 88 -4 123 -23z m-323 -785 c-3 -3 -11 0 -18 7 -9 10 -8 11
6 5 10 -3 15 -9 12 -12z m355 -32 c-8 -5 -19 -10 -25 -10 -5 0 -3 5 5 10 8 5
20 10 25 10 6 0 3 -5 -5 -10z m-153 -46 c-3 -3 -12 -4 -19 -1 -8 3 -5 6 6 6
11 1 17 -2 13 -5z"/>
<path d="M1350 1331 c-74 -74 -6 -190 83 -142 43 23 50 95 15 135 -37 40 -64
42 -98 7z m34 -46 c-4 -8 -8 -15 -10 -15 -2 0 -4 7 -4 15 0 8 4 15 10 15 5 0
7 -7 4 -15z m36 5 c0 -5 -2 -10 -4 -10 -3 0 -8 5 -11 10 -3 6 -1 10 4 10 6 0
11 -4 11 -10z"/>
<path d="M1132 1345 c4 -4 -6 -18 -23 -32 -23 -19 -29 -33 -29 -63 0 -108 137
-126 155 -19 5 29 2 41 -19 66 -14 17 -22 33 -19 37 4 4 0 4 -9 1 -9 -4 -27
-1 -40 6 -13 6 -20 8 -16 4z"/>
<path d="M854 964 c-12 -45 4 -125 32 -166 34 -48 109 -95 177 -110 77 -16
250 -5 317 21 30 12 62 25 70 31 28 18 -1 23 -57 10 -73 -17 -87 -18 -203 -20
-84 -2 -102 1 -152 25 -96 44 -158 127 -158 211 0 32 -18 31 -26 -2z"/>
<path d="M875 668 c4 -18 12 -38 17 -45 5 -7 5 -13 0 -17 -18 -11 0 -57 28
-71 36 -19 82 -4 129 41 39 37 34 54 -14 54 -45 0 -113 28 -126 51 -5 11 -17
19 -25 19 -12 0 -14 -7 -9 -32z"/>
<path d="M850 178 c0 -4 7 -8 15 -8 8 0 15 -5 15 -12 0 -9 3 -9 11 -1 6 6 8
16 5 21 -7 12 -46 12 -46 0z"/>
</g>
</svg>
