<?xml version="1.0" standalone="no"?>
<!DOCTYPE svg PUBLIC "-//W3C//DTD SVG 20010904//EN"
 "http://www.w3.org/TR/2001/REC-SVG-20010904/DTD/svg10.dtd">
<svg version="1.0" xmlns="http://www.w3.org/2000/svg"
 width="260.000000pt" height="260.000000pt" viewBox="0 0 260.000000 260.000000"
 preserveAspectRatio="xMidYMid meet">
<metadata>
Created by potrace 1.11, written by Peter Selinger 2001-2013
</metadata>
<g transform="translate(0.000000,260.000000) scale(0.100000,-0.100000)"
fill="#000000" stroke="none">
<path d="M2119 2584 c-10 -12 -15 -51 -16 -138 l-2 -120 -488 3 c-281 1 -609
-3 -773 -10 -157 -7 -301 -13 -320 -13 l-35 -1 -20 114 c-12 68 -25 116 -33
119 -16 5 -34 -17 -138 -172 -102 -151 -179 -237 -246 -275 -45 -26 -47 -29
-31 -43 53 -46 149 -56 225 -23 51 22 158 94 158 106 0 5 5 9 11 9 7 0 9 -14
5 -37 -10 -61 -36 -577 -36 -705 0 -64 -4 -119 -9 -122 -14 -9 -77 67 -110
131 -16 32 -41 93 -56 135 -15 43 -31 75 -36 72 -12 -7 -39 -102 -39 -136 0
-35 -8 -35 -47 1 -18 16 -34 26 -37 23 -13 -12 -5 -97 15 -155 62 -184 169
-309 301 -351 16 -5 18 -22 18 -173 0 -92 3 -212 7 -267 6 -98 6 -98 37 -111
29 -12 145 -31 229 -38 38 -3 38 -3 74 -92 34 -85 118 -231 163 -284 28 -32
38 -19 46 57 4 34 10 62 13 62 3 0 31 -16 61 -35 47 -31 80 -43 80 -31 0 8
-99 266 -110 286 -11 20 -9 20 295 20 247 0 305 -3 305 -13 0 -8 -17 -63 -39
-123 -21 -60 -42 -124 -46 -142 -6 -28 -4 -32 14 -32 11 0 43 8 70 19 l50 19
6 -42 c12 -72 17 -72 84 0 98 104 157 208 175 304 l6 35 147 18 c80 9 149 20
152 23 3 3 7 149 9 324 l3 319 32 7 c88 18 168 93 225 208 46 92 73 225 56
271 -6 14 -13 10 -45 -21 -35 -34 -39 -36 -45 -18 -18 52 -44 104 -51 104 -5
0 -14 -32 -20 -71 -13 -86 -61 -187 -109 -229 -20 -17 -38 -30 -40 -28 -4 4
-34 678 -34 759 l0 48 47 -26 c35 -20 65 -28 123 -31 125 -7 213 43 241 138
15 50 7 70 -28 70 -46 1 -154 44 -212 84 -59 42 -135 120 -186 191 -29 42 -33
44 -46 29z m135 -207 c65 -62 175 -123 238 -133 21 -4 38 -10 38 -15 0 -12
-41 -48 -75 -67 -62 -32 -203 -11 -266 40 -18 15 -39 149 -39 243 l1 50 21
-30 c12 -16 49 -56 82 -88z m-1827 -25 c5 -86 3 -105 -12 -128 -14 -21 -19
-24 -27 -13 -7 10 -8 8 -3 -7 11 -41 -121 -118 -238 -139 l-37 -7 61 62 c34
35 86 102 116 149 114 177 125 193 129 188 3 -2 8 -50 11 -105z m1679 -95 c2
-2 10 -175 19 -427 3 -69 8 -177 11 -240 7 -155 9 -1059 2 -1066 -9 -9 -233
-32 -420 -44 -190 -13 -851 -16 -993 -6 -156 12 -270 28 -277 40 -11 17 -9
916 2 1176 9 207 34 492 46 532 4 13 24 18 99 23 181 14 1500 24 1511 12z
m304 -711 c0 -8 5 -27 10 -42 l11 -27 31 29 31 29 -7 -44 c-4 -25 -15 -61 -24
-82 l-17 -38 -39 34 c-36 32 -38 36 -27 66 6 18 11 45 11 60 0 16 5 29 10 29
6 0 10 -6 10 -14z m-2221 -65 l20 -53 -35 -36 c-19 -20 -37 -46 -40 -59 -4
-13 -9 -23 -13 -23 -9 0 -37 67 -46 109 l-7 34 27 -21 c38 -30 55 -28 55 6 0
31 11 104 15 100 2 -2 12 -27 24 -57z m2206 -112 c19 -17 35 -36 35 -43 0 -23
-100 -124 -143 -145 -70 -34 -77 -30 -77 39 0 55 2 61 24 70 13 5 43 31 67 59
24 28 47 51 51 51 4 0 23 -14 43 -31z m-2154 -10 c18 -34 101 -139 110 -139 5
0 8 -36 8 -80 0 -54 -4 -80 -12 -80 -45 0 -160 98 -195 165 -12 24 3 76 37
124 26 37 36 39 52 10z m704 -1019 c14 -27 25 -52 25 -55 0 -3 -12 -5 -27 -5
-16 0 -56 -6 -90 -13 l-62 -13 -26 63 c-14 35 -25 67 -25 71 0 4 41 6 90 4
l90 -3 25 -49z m897 48 c-7 -7 -12 -20 -12 -30 0 -10 -7 -36 -16 -59 -16 -38
-19 -40 -48 -35 -17 3 -64 6 -103 7 -81 2 -86 8 -58 63 8 15 15 34 15 42 0 14
38 19 165 22 54 2 66 -1 57 -10z m-836 -183 c14 -25 24 -48 22 -50 -2 -3 -29
11 -58 30 -30 19 -63 34 -75 34 -18 -2 -18 -2 3 -6 12 -2 22 -10 22 -17 0 -36
-14 -106 -21 -106 -4 0 -26 28 -49 62 l-41 62 57 13 c39 9 61 10 68 3 5 -5 19
-10 30 -9 12 0 15 3 8 6 -10 4 -8 23 3 23 2 0 16 -20 31 -45z m752 10 c3 -3 0
-11 -6 -17 -9 -9 -12 -9 -12 1 0 7 -5 9 -11 5 -8 -4 -7 -9 2 -15 10 -6 7 -16
-17 -45 -39 -49 -54 -53 -54 -16 0 16 -3 31 -6 35 -3 3 -30 -5 -60 -18 -30
-13 -54 -21 -54 -17 0 4 8 29 17 56 l18 49 89 -6 c48 -3 91 -8 94 -12z"/>
<path d="M2226 2201 c-4 -5 3 -7 14 -4 23 6 26 13 6 13 -8 0 -17 -4 -20 -9z"/>
<path d="M2415 2200 c-13 -6 -15 -9 -5 -9 8 0 22 4 30 9 18 12 2 12 -25 0z"/>
<path d="M2388 2173 c6 -2 18 -2 25 0 6 3 1 5 -13 5 -14 0 -19 -2 -12 -5z"/>
<path d="M299 2143 c-13 -16 -12 -17 4 -4 16 13 21 21 13 21 -2 0 -10 -8 -17
-17z"/>
<path d="M1134 2130 c-73 -39 -115 -78 -166 -155 -43 -65 -36 -85 14 -39 l31
29 -25 -40 c-54 -89 -98 -222 -98 -297 0 -38 5 -54 23 -72 l24 -24 -25 -58
c-29 -71 -41 -228 -23 -312 29 -137 130 -276 241 -330 49 -24 66 -27 155 -27
117 0 161 17 246 93 102 92 152 207 151 352 0 92 -27 213 -54 247 -7 8 -2 22
15 45 13 18 30 50 37 71 25 78 -12 220 -88 340 l-42 66 47 3 c25 2 48 8 50 15
10 31 -184 96 -255 85 -36 -5 -40 -15 -14 -38 18 -15 18 -17 -9 -45 -36 -39
-53 -114 -45 -203 3 -39 9 -81 12 -93 6 -21 3 -23 -27 -23 l-34 0 0 108 c0
130 -21 183 -83 209 l-37 15 73 36 c88 43 94 65 16 70 -40 2 -62 -3 -110 -28z
m339 -112 c34 -17 61 -50 101 -121 43 -77 45 -94 11 -71 -14 9 -22 21 -18 27
3 6 1 7 -6 3 -6 -4 -33 -1 -59 8 -26 8 -69 18 -95 22 -43 6 -48 9 -43 28 3 11
6 29 6 39 0 20 52 77 70 77 6 0 21 -5 33 -12z m-274 -52 c13 -14 20 -29 16
-35 -3 -6 -1 -11 4 -11 6 0 11 -7 11 -16 0 -10 -6 -14 -15 -10 -8 3 -15 1 -15
-4 0 -6 -11 -10 -23 -10 -30 0 -133 -35 -165 -56 -13 -9 -26 -13 -29 -11 -9
10 36 83 74 119 63 61 107 71 142 34z m41 -160 c0 -63 -15 -96 -42 -96 -36 0
-139 -53 -190 -99 -43 -39 -47 -40 -63 -24 -23 22 -17 126 8 150 16 16 17 16
17 -5 0 -29 41 -55 74 -46 51 12 86 90 54 122 -9 9 -7 13 6 18 30 11 79 22
109 23 26 1 27 -1 27 -43z m225 21 c0 -25 -15 -25 -31 -1 -13 19 -12 21 8 19
14 -1 23 -8 23 -18z m106 -35 c29 -21 60 -49 67 -62 24 -46 -5 -160 -41 -160
-7 0 -32 19 -55 43 -40 41 -80 67 -133 86 -16 6 -31 22 -37 40 -11 30 -10 30
18 24 46 -9 76 4 90 37 7 16 18 30 25 30 6 0 36 -17 66 -38z m-481 -12 c0 -11
-7 -20 -15 -20 -8 0 -15 5 -15 10 0 6 -7 10 -16 10 -25 0 -8 15 20 18 20 1 26
-3 26 -18z m288 -125 c67 -20 157 -106 196 -187 112 -229 5 -522 -215 -589
-79 -24 -133 -21 -209 12 -109 48 -195 182 -209 327 -9 92 7 201 40 266 71
142 244 216 397 171z"/>
<path d="M1191 1934 c0 -11 3 -14 6 -6 3 7 2 16 -1 19 -3 4 -6 -2 -5 -13z"/>
<path d="M1345 1324 c-27 -29 -32 -72 -14 -107 16 -30 28 -37 66 -37 66 0 98
96 48 145 -32 33 -70 32 -100 -1z m83 -63 c-5 -24 -26 -24 -33 0 -6 17 -9 19
-16 8 -7 -11 -9 -9 -9 8 0 12 7 23 18 26 20 4 44 -21 40 -42z"/>
<path d="M1099 1299 c-40 -57 -7 -139 56 -139 57 0 94 60 71 115 -26 62 -91
75 -127 24z m79 -49 c3 -24 3 -24 -11 -6 -8 10 -19 16 -25 12 -8 -5 -10 -1 -6
9 10 24 39 13 42 -15z"/>
<path d="M856 964 c-22 -58 9 -150 69 -203 74 -64 114 -76 260 -76 120 1 136
3 202 30 40 16 69 33 65 37 -5 5 -20 5 -33 0 -13 -5 -64 -15 -113 -22 -144
-20 -250 -1 -338 61 -45 33 -88 106 -88 151 0 39 -13 51 -24 22z"/>
<path d="M1576 912 l-19 -27 26 24 c28 26 32 31 20 31 -5 0 -17 -13 -27 -28z"/>
<path d="M1530 870 c-9 -6 -10 -10 -3 -10 6 0 15 5 18 10 8 12 4 12 -15 0z"/>
<path d="M1400 790 c0 -5 -8 -7 -17 -4 -14 5 -15 4 -4 -4 7 -5 22 -7 32 -5 23
6 24 9 4 17 -8 3 -15 1 -15 -4z"/>
<path d="M877 692 c-3 -4 1 -25 8 -46 8 -22 12 -43 9 -48 -3 -5 -2 -8 3 -7 4
1 21 -3 36 -9 47 -20 103 -15 127 11 l21 22 -43 8 c-57 11 -127 43 -134 62 -7
16 -20 20 -27 7z"/>
<path d="M901 564 c0 -11 3 -14 6 -6 3 7 2 16 -1 19 -3 4 -6 -2 -5 -13z"/>
<path d="M2387 1455 c-7 -18 9 -21 17 -2 3 6 4 3 1 -8 -3 -13 2 -25 15 -33 17
-10 20 -10 20 4 0 8 -4 13 -9 9 -5 -3 -11 5 -13 17 -4 26 -23 35 -31 13z"/>
<path d="M173 1444 c3 -4 -1 -13 -9 -21 -22 -22 -8 -29 16 -8 20 18 19 35 -2
35 -6 0 -9 -3 -5 -6z"/>
<path d="M122 1378 c-14 -14 -16 -42 -2 -33 14 9 32 45 22 45 -4 0 -13 -5 -20
-12z"/>
<path d="M2264 1229 c0 -10 4 -19 8 -19 4 0 8 6 8 14 0 8 -4 17 -8 20 -4 2 -8
-4 -8 -15z"/>
<path d="M330 1170 c0 -5 5 -10 11 -10 5 0 7 5 4 10 -3 6 -8 10 -11 10 -2 0
-4 -4 -4 -10z"/>
<path d="M310 1090 c0 -5 5 -10 11 -10 5 0 7 5 4 10 -3 6 -8 10 -11 10 -2 0
-4 -4 -4 -10z"/>
<path d="M1620 210 c0 -10 1 -11 35 -15 11 -2 26 -4 34 -6 7 -2 15 1 18 7 2 6
-10 14 -28 18 -44 9 -59 8 -59 -4z"/>
</g>
</svg>
